<svg width="9" height="9" viewBox="0 0 9 9" fill="none" xmlns="http://www.w3.org/2000/svg">
<path fill-rule="evenodd" clip-rule="evenodd" d="M3.3928 0.355227C3.70197 0.664394 3.70197 1.16564 3.3928 1.47481L1.80947 3.05814C1.5003 3.36731 0.999049 3.36731 0.689883 3.05814C0.380716 2.74898 0.380716 2.24773 0.689883 1.93856L2.27322 0.355227C2.58238 0.0460604 3.08363 0.0460604 3.3928 0.355227ZM4.64822 2.73023C4.95738 2.42106 5.45863 2.42106 5.7678 2.73023C6.07697 3.03939 6.07697 3.54064 5.7678 3.84981L1.80947 7.80814C1.5003 8.11731 0.999049 8.11731 0.689883 7.80814C0.380716 7.49898 0.380716 6.99773 0.689883 6.68856L4.64822 2.73023ZM8.14284 5.10523C8.45192 5.41439 8.45192 5.91564 8.14284 6.22481L6.55947 7.80814C6.2503 8.11731 5.74905 8.11731 5.43988 7.80814C5.13072 7.49898 5.13072 6.99773 5.43988 6.68856L7.02322 5.10523C7.33238 4.79606 7.83367 4.79606 8.14284 5.10523Z" fill="url(#paint0_linear_2504_6408)"/>
<defs>
<linearGradient id="paint0_linear_2504_6408" x1="1.80828" y1="0.558029" x2="7.08914" y2="6.63424" gradientUnits="userSpaceOnUse">
<stop stop-color="#EC3A4B"/>
<stop offset="1" stop-color="#F36F30"/>
</linearGradient>
</defs>
</svg>
