<svg width="18" height="19" viewBox="0 0 18 19" fill="none" xmlns="http://www.w3.org/2000/svg">
<path fill-rule="evenodd" clip-rule="evenodd" d="M6.43752 0.95845C6.47752 0.958458 6.51807 0.958467 6.55921 0.958467C7.00848 0.958467 7.37272 1.32268 7.37272 1.77196C7.37272 2.22123 7.00848 2.58544 6.55921 2.58544C5.37779 2.58544 4.93024 2.59111 4.57935 2.67535C3.38955 2.961 2.46057 3.88998 2.17492 5.07978C2.09068 5.43067 2.08502 5.87822 2.08502 7.05963C2.08502 7.50891 1.72081 7.87308 1.27152 7.87308C0.822249 7.87308 0.45804 7.50891 0.45804 7.05963C0.45804 7.01851 0.458032 6.97795 0.458024 6.93795C0.457815 5.92037 0.457691 5.26317 0.592899 4.69997C1.02137 2.91526 2.41483 1.5218 4.19954 1.09333C4.76274 0.958117 5.41995 0.95825 6.43752 0.95845ZM13.42 2.67535C13.0691 2.59111 12.6216 2.58544 11.4401 2.58544C10.9909 2.58544 10.6266 2.22123 10.6266 1.77196C10.6266 1.32268 10.9909 0.958467 11.4401 0.958467C11.4813 0.958467 11.5218 0.958458 11.5618 0.95845C12.5794 0.95825 13.2366 0.958117 13.7998 1.09333C15.5845 1.5218 16.978 2.91526 17.4065 4.69997C17.5416 5.26317 17.5416 5.92037 17.5413 6.93793C17.5413 6.97794 17.5413 7.0185 17.5413 7.05963C17.5413 7.50891 17.1771 7.87308 16.7278 7.87308C16.2786 7.87308 15.9143 7.50891 15.9143 7.05963C15.9143 5.87822 15.9086 5.43068 15.8244 5.07978C15.5388 3.88998 14.6098 2.961 13.42 2.67535ZM1.27152 11.1271C1.72081 11.1271 2.08502 11.4913 2.08502 11.9406C2.08502 13.122 2.09068 13.5695 2.17492 13.9204C2.46057 15.1103 3.38955 16.0392 4.57935 16.3248C4.93024 16.4091 5.37779 16.4148 6.55921 16.4148C7.00848 16.4148 7.37272 16.779 7.37272 17.2282C7.37272 17.6775 7.00848 18.0417 6.55921 18.0417C6.51807 18.0417 6.47752 18.0417 6.43751 18.0417C5.41994 18.0419 4.76273 18.0421 4.19954 17.9069C2.41483 17.4784 1.02137 16.0849 0.592899 14.3002C0.457691 13.737 0.457815 13.0798 0.458024 12.0623C0.458032 12.0223 0.45804 11.9817 0.45804 11.9406C0.45804 11.4913 0.822249 11.1271 1.27152 11.1271ZM16.7278 11.1271C17.1771 11.1271 17.5413 11.4913 17.5413 11.9406C17.5413 11.9817 17.5413 12.0223 17.5413 12.0623C17.5416 13.0798 17.5416 13.7371 17.4065 14.3002C16.978 16.0849 15.5845 17.4784 13.7998 17.9069C13.2366 18.0421 12.5794 18.0419 11.5618 18.0417C11.5218 18.0417 11.4813 18.0417 11.4401 18.0417C10.9909 18.0417 10.6266 17.6775 10.6266 17.2282C10.6266 16.779 10.9909 16.4148 11.4401 16.4148C12.6216 16.4148 13.0691 16.4091 13.42 16.3248C14.6098 16.0392 15.5388 15.1103 15.8244 13.9204C15.9086 13.5695 15.9143 13.122 15.9143 11.9406C15.9143 11.4913 16.2786 11.1271 16.7278 11.1271Z" fill="url(#paint0_linear_2504_6388)"/>
<defs>
<linearGradient id="paint0_linear_2504_6388" x1="3.37175" y1="1.89642" x2="14.7673" y2="15.0083" gradientUnits="userSpaceOnUse">
<stop stop-color="#EC3A4B"/>
<stop offset="1" stop-color="#F36F30"/>
</linearGradient>
</defs>
</svg>
