<svg width="20" height="20" viewBox="0 0 20 20" fill="none" xmlns="http://www.w3.org/2000/svg">
<path d="M9.07088 1.5015C9.41462 0.685045 10.5854 0.685046 10.9291 1.50151L12.9579 6.32039C13.1029 6.66459 13.4306 6.89977 13.8067 6.92956L19.0727 7.34664C19.9649 7.4173 20.3267 8.51729 19.6469 9.09256L15.6348 12.4878C15.3482 12.7304 15.223 13.1109 15.3106 13.4735L16.5363 18.5502C16.744 19.4103 15.7969 20.0902 15.033 19.6293L10.5245 16.9087C10.2025 16.7144 9.7975 16.7144 9.47548 16.9087L4.96699 19.6293C4.20311 20.0902 3.25596 19.4103 3.46363 18.5502L4.68942 13.4735C4.77698 13.1109 4.65182 12.7304 4.36526 12.4878L0.353062 9.09256C-0.326718 8.51729 0.0350679 7.4173 0.927291 7.34664L6.19336 6.92956C6.5695 6.89977 6.89716 6.66459 7.04207 6.32039L9.07088 1.5015Z" fill="url(#paint0_linear_2096_6322)"/>
<defs>
<linearGradient id="paint0_linear_2096_6322" x1="3.41121" y1="1.92629" x2="15.8913" y2="17.1307" gradientUnits="userSpaceOnUse">
<stop stop-color="#EC3A4B"/>
<stop offset="1" stop-color="#F36F30"/>
</linearGradient>
</defs>
</svg>
