<svg width="16" height="16" viewBox="0 0 16 16" fill="none" xmlns="http://www.w3.org/2000/svg">
<path fill-rule="evenodd" clip-rule="evenodd" d="M15.0923 1.40653C14.8235 1.13782 14.5153 1.02056 14.1833 0.978632C13.9027 0.943198 13.5308 0.961482 13.1918 0.978148C11.1576 1.07766 9.16584 1.6913 7.63009 3.22707L6.39217 4.46505C5.85184 5.00531 5.60351 5.24337 5.37401 5.36092C5.21477 5.44245 5.03007 5.48234 4.55363 5.39178C4.15662 5.29242 3.65928 5.16795 3.19507 5.16706C2.68373 5.1661 2.15103 5.30781 1.69988 5.75896C1.26942 6.18941 0.957999 6.69553 0.958008 7.28582C0.958016 7.87606 1.26944 8.38223 1.69988 8.81265L7.68609 14.7989C8.11651 15.2293 8.62267 15.5407 9.21292 15.5407C9.80326 15.5407 10.3093 15.2293 10.7398 14.7989C11.1909 14.3477 11.3327 13.815 11.3317 13.3036C11.3308 12.8395 11.2063 12.3421 11.107 11.9451C11.0164 11.4686 11.0563 11.284 11.1378 11.1247C11.2553 10.8952 11.4934 10.6469 12.0337 10.1066L13.2717 8.86865C14.8074 7.33287 15.4211 5.34113 15.5206 3.30702C15.5373 2.96802 15.5556 2.59611 15.5201 2.31544C15.4782 1.98339 15.3609 1.67525 15.0923 1.40653ZM11.1631 4.49998C10.7028 4.49998 10.3298 4.87308 10.3298 5.33331C10.3298 5.79355 10.7028 6.16665 11.1631 6.16665H11.1706C11.6308 6.16665 12.0039 5.79355 12.0039 5.33331C12.0039 4.87308 11.6308 4.49998 11.1706 4.49998H11.1631Z" fill="url(#paint0_linear_2504_6407)"/>
<defs>
<linearGradient id="paint0_linear_2504_6407" x1="3.4452" y1="1.75898" x2="13.1725" y2="12.9513" gradientUnits="userSpaceOnUse">
<stop stop-color="#EC3A4B"/>
<stop offset="1" stop-color="#F36F30"/>
</linearGradient>
</defs>
</svg>
